<svg id="a23f40ca-5bc1-4bc2-a355-1643c167fc01" data-name="Capa 1" xmlns="http://www.w3.org/2000/svg" xmlns:xlink="http://www.w3.org/1999/xlink" viewBox="0 0 250 250"><defs><style>.f227de6a-4714-4a6f-b41a-41bbcd77aecf{fill:url(#f58823ff-4261-4f5c-bb31-52ffaaf09441);}.bc3e2687-3772-4894-93e9-a29a696a3661{fill:url(#b70842f9-f063-4092-96bb-bc9a04b7b037);}.ebbcc9e9-9244-4ee9-9a9e-2c9ec2fb26a6{fill:url(#a290bdfc-4e1d-4ece-9c20-cd8a806c9547);}.e2444845-5063-4f4e-bb0f-063c98a98d3b{fill:url(#f9c80252-f3a0-4535-8285-427a66587e28);}.f8def45e-e5dd-46cf-a871-490521ceaafc{fill:url(#ac76db72-4d79-4490-b10d-723df19b63c5);}.e53a677d-cf42-42af-bc7c-ccde0cf4a101{fill:url(#bbd45760-9188-4063-bda1-4d472a17693a);}.aee50a69-c296-4a27-a546-e690e9e04cb1{fill:url(#b00161dd-4773-441e-84c2-daec4b593a6f);}.ba59966e-b432-4b05-85bf-f05151eab715{fill:url(#a62fde8e-13a3-474a-84df-4ce12afaa829);}.fb7e62ac-4aa1-4e31-9a2a-210a8ae678e7{fill:url(#ad9f3a81-7560-4084-ac75-086c6c95fc0d);}.b2e5e978-25d9-4f1d-be84-e7f634e50175{fill:url(#e178b2b7-cb35-499f-be3a-9422e9925110);}.fe7a519f-bbee-4967-b1f9-e71974fd307f{fill:url(#b9adfb90-2eac-40bc-a268-adb22fd29135);}.b1146b41-ae39-4a6b-8536-6b7c3de84402{fill:url(#a91e1fee-d4ac-47bc-8c24-c827ce1a12df);}.b7b1adbe-142a-44bd-9f5c-55684f9905ae{fill:url(#aafa0e0e-1513-4bd1-8340-5b1df4c5a292);}.b12d443d-0a4e-48eb-af9b-6ace6042d4d3{fill:url(#ea00b9a4-4d58-4227-b050-75c378176059);}.b0304901-137e-49d5-8212-1c4c31558de3{fill:url(#e9af08c2-712f-46f0-a390-56136a9956b2);}.edc488e1-01c0-4972-9b23-47e74aebb962{fill:url(#ead6cecd-8e98-4e35-971a-92e5f7c101ab);}.f0be0a40-b897-4e4b-8776-5e3bf0f21cfa{fill:url(#adea1e56-9ecb-432a-b149-47b4cd267887);}.a5f411da-a40d-4903-afc3-ae8401fda4e0{fill:url(#af1a5689-0cd5-4214-9972-3eaf36020fda);}.ab754187-9369-4cd4-a14d-0ba45a3661cf{fill:url(#fdba58f9-b31c-4567-9566-7990f976f800);}.a75265c1-48e2-4091-a300-a96ff58b0bf5{fill:url(#b872961c-2491-4144-b8b2-724d795b9359);}.aa493b2b-2ced-4982-ae16-e32bc688bbc9{fill:url(#e97844cf-1d9e-4f01-a296-8ebf788eb322);}.b137ee20-6990-45c4-a93f-d5fc02bc055a{fill:url(#ba0bd207-526d-49ea-a6a3-0f3fc3cbbc26);}.afcf333c-bdee-45c5-ba66-89d9ed52eddf{fill:url(#e779eda2-a2dd-40f4-8f8b-1c12647f8a0e);}.a723fea3-dc43-44d5-9a74-c6d21789a0ea{fill:url(#aca8adce-4ae8-48ee-9abe-2b09fd60dd9b);}.ae8c94f0-78d0-4e64-aa66-d1ce1741cf98{fill:url(#e5f27cf7-b24b-49b4-8b83-f7c82901490e);}.ee978857-beb4-446b-a6d4-69979ea380c9{fill:url(#f236f3e5-d958-4896-85ca-f06b603a13dd);}</style><linearGradient id="f58823ff-4261-4f5c-bb31-52ffaaf09441" x1="216.17" y1="173.44" x2="216.17" y2="111.39" gradientUnits="userSpaceOnUse"><stop offset="0" stop-color="#f7be00"/><stop offset="0.18" stop-color="#f7bf03"/><stop offset="0.29" stop-color="#f7c10b"/><stop offset="0.38" stop-color="#f6c519"/><stop offset="0.45" stop-color="#f6ca2d"/><stop offset="0.53" stop-color="#f5d148"/><stop offset="0.59" stop-color="#f4da68"/><stop offset="0.6" stop-color="#f4db6c"/><stop offset="0.61" stop-color="#f4da67"/><stop offset="0.69" stop-color="#f5d042"/><stop offset="0.77" stop-color="#f6c825"/><stop offset="0.85" stop-color="#f7c211"/><stop offset="0.93" stop-color="#f7bf04"/><stop offset="1" stop-color="#f7be00"/></linearGradient><linearGradient id="b70842f9-f063-4092-96bb-bc9a04b7b037" x1="118.67" y1="173.44" x2="118.67" y2="111.39" xlink:href="#f58823ff-4261-4f5c-bb31-52ffaaf09441"/><linearGradient id="a290bdfc-4e1d-4ece-9c20-cd8a806c9547" x1="180.71" y1="173.44" x2="180.71" y2="111.39" xlink:href="#f58823ff-4261-4f5c-bb31-52ffaaf09441"/><linearGradient id="f9c80252-f3a0-4535-8285-427a66587e28" x1="149.69" y1="173.43" x2="149.69" y2="111.39" xlink:href="#f58823ff-4261-4f5c-bb31-52ffaaf09441"/><linearGradient id="ac76db72-4d79-4490-b10d-723df19b63c5" x1="79.89" y1="173.43" x2="79.89" y2="75.94" xlink:href="#f58823ff-4261-4f5c-bb31-52ffaaf09441"/><linearGradient id="bbd45760-9188-4063-bda1-4d472a17693a" x1="44.06" y1="188.94" x2="44.06" y2="62.64" xlink:href="#f58823ff-4261-4f5c-bb31-52ffaaf09441"/><linearGradient id="b00161dd-4773-441e-84c2-daec4b593a6f" x1="119.44" y1="106.58" x2="119.44" y2="69.37" gradientUnits="userSpaceOnUse"><stop offset="0" stop-color="#fff"/><stop offset="0.26" stop-color="#f6f6f6"/><stop offset="0.68" stop-color="#dedede"/><stop offset="0.75" stop-color="#d9d9d9"/><stop offset="1" stop-color="#fff"/></linearGradient><linearGradient id="a62fde8e-13a3-474a-84df-4ce12afaa829" x1="133.89" y1="102.43" x2="133.89" y2="85.28" xlink:href="#b00161dd-4773-441e-84c2-daec4b593a6f"/><linearGradient id="ad9f3a81-7560-4084-ac75-086c6c95fc0d" x1="145.57" y1="102.66" x2="145.57" y2="84.74" xlink:href="#b00161dd-4773-441e-84c2-daec4b593a6f"/><linearGradient id="e178b2b7-cb35-499f-be3a-9422e9925110" x1="156.41" y1="102.52" x2="156.41" y2="85.28" xlink:href="#b00161dd-4773-441e-84c2-daec4b593a6f"/><linearGradient id="b9adfb90-2eac-40bc-a268-adb22fd29135" x1="167.55" y1="102.43" x2="167.55" y2="85.28" xlink:href="#b00161dd-4773-441e-84c2-daec4b593a6f"/><linearGradient id="a91e1fee-d4ac-47bc-8c24-c827ce1a12df" x1="180.13" y1="102.43" x2="180.13" y2="85.28" xlink:href="#b00161dd-4773-441e-84c2-daec4b593a6f"/><linearGradient id="aafa0e0e-1513-4bd1-8340-5b1df4c5a292" x1="192.81" y1="102.43" x2="192.81" y2="85.28" xlink:href="#b00161dd-4773-441e-84c2-daec4b593a6f"/><linearGradient id="ea00b9a4-4d58-4227-b050-75c378176059" x1="204.49" y1="102.66" x2="204.49" y2="84.74" xlink:href="#b00161dd-4773-441e-84c2-daec4b593a6f"/><linearGradient id="e9af08c2-712f-46f0-a390-56136a9956b2" x1="211.45" y1="102.52" x2="211.45" y2="85.28" xlink:href="#b00161dd-4773-441e-84c2-daec4b593a6f"/><linearGradient id="ead6cecd-8e98-4e35-971a-92e5f7c101ab" x1="221.93" y1="102.52" x2="221.93" y2="85.16" xlink:href="#b00161dd-4773-441e-84c2-daec4b593a6f"/><linearGradient id="adea1e56-9ecb-432a-b149-47b4cd267887" x1="214.53" y1="82.69" x2="214.53" y2="79.69" xlink:href="#b00161dd-4773-441e-84c2-daec4b593a6f"/><linearGradient id="af1a5689-0cd5-4214-9972-3eaf36020fda" x1="216.85" y1="82.53" x2="216.85" y2="80.23" xlink:href="#b00161dd-4773-441e-84c2-daec4b593a6f"/><linearGradient id="fdba58f9-b31c-4567-9566-7990f976f800" x1="212.75" y1="81.83" x2="212.75" y2="79.03" xlink:href="#b00161dd-4773-441e-84c2-daec4b593a6f"/><linearGradient id="b872961c-2491-4144-b8b2-724d795b9359" x1="217.11" y1="79.95" x2="217.11" y2="78.44" xlink:href="#b00161dd-4773-441e-84c2-daec4b593a6f"/><linearGradient id="e97844cf-1d9e-4f01-a296-8ebf788eb322" x1="213.28" y1="79.39" x2="213.28" y2="77.32" xlink:href="#b00161dd-4773-441e-84c2-daec4b593a6f"/><linearGradient id="ba0bd207-526d-49ea-a6a3-0f3fc3cbbc26" x1="214.91" y1="80.2" x2="214.91" y2="77.94" xlink:href="#b00161dd-4773-441e-84c2-daec4b593a6f"/><linearGradient id="e779eda2-a2dd-40f4-8f8b-1c12647f8a0e" x1="215.55" y1="76.99" x2="215.55" y2="75.04" xlink:href="#b00161dd-4773-441e-84c2-daec4b593a6f"/><linearGradient id="aca8adce-4ae8-48ee-9abe-2b09fd60dd9b" x1="213.81" y1="77.7" x2="213.81" y2="76.1" xlink:href="#b00161dd-4773-441e-84c2-daec4b593a6f"/><linearGradient id="e5f27cf7-b24b-49b4-8b83-f7c82901490e" x1="217.12" y1="78.19" x2="217.12" y2="77" xlink:href="#b00161dd-4773-441e-84c2-daec4b593a6f"/><linearGradient id="f236f3e5-d958-4896-85ca-f06b603a13dd" x1="215.27" y1="78.17" x2="215.27" y2="76.63" xlink:href="#b00161dd-4773-441e-84c2-daec4b593a6f"/></defs><path class="f227de6a-4714-4a6f-b41a-41bbcd77aecf" d="M231.7,138l-2.2-2.2V113.6l2.2-2.2h-31l2.2,2.2v17.7l2.2,2.3,8.9-4.5-2.3-2.2v-6.6a8.7,8.7,0,0,1,8.8,8.8c0,6.5-5.3,8.9-19.8,8.9l2.2,2.2v31l-2.2,2.2h31l-2.2-2.2v-31Zm-20,26.6V146.8h.1c3.2,0,8.2-2.4,8.7-4.1v21.9Z"/><path class="bc3e2687-3772-4894-93e9-a29a696a3661" d="M134.2,138l-2.2-2.2V113.6l2.2-2.2h-31l2.2,2.2v17.7l2.2,2.3,8.9-4.5-2.3-2.2v-6.6a8.7,8.7,0,0,1,8.8,8.8c0,6.5-5.3,8.9-19.8,8.9l2.2,2.2v31l-2.2,2.2h31l-2.2-2.2v-31Zm-20,26.6V146.8h.1c3.2,0,8.2-2.4,8.7-4.1v21.9Z"/><polygon class="ebbcc9e9-9244-4ee9-9a9e-2c9ec2fb26a6" points="194 171.2 196.2 173.4 165.2 173.4 167.4 171.2 167.4 140.2 165.2 138 167.4 135.8 167.4 113.6 165.2 111.4 196.2 111.4 194 113.6 194 135.8 182.9 129.1 185.1 126.9 185.1 120.3 176.3 120.7 176.3 135.8 178.5 138 176.3 140.2 176.3 164.6 185.2 164.6 185.1 157.9 182.9 155.7 194 149.1 194 171.2"/><path class="e2444845-5063-4f4e-bb0f-063c98a98d3b" d="M163,111.4l-2.2,2.2v13.3h-2.2c0-5.2-2.3-6.6-4.5-6.6-4.4,0-6.6,4.4-6.6,8.8v6.7l2.2,2.2-2.2,2.2v31l2.2,2.2H136.4l2.2-2.2v-31l-2.2-2.2,2.2-2.2v-20l-2.2-4.4c5.5,0,11.1,3.3,11.1,6.6,0-3.3,4.4-6.6,8.8-6.6Z"/><polygon class="f8def45e-e5dd-46cf-a871-490521ceaafc" points="74.4 173.4 87.7 173.4 85.4 171.2 85.4 140.2 87.6 138 85.4 135.8 85.4 89.2 87.6 87 72.1 75.9 76.6 87 76.6 135.8 74.3 138 76.6 140.2 76.6 171.2 74.4 173.4"/><path class="e53a677d-cf42-42af-bc7c-ccde0cf4a101" d="M43.3,83l4.4-2.6c1.7-1.2,4.5-3.1,6.6-4.7l6.8-5.6v5.7L58.8,78l8.9,8.9V65.4a11.7,11.7,0,0,1,3.7-2.2,25.7,25.7,0,0,0-5.9-.6,12.6,12.6,0,0,0-3.8.6,55.1,55.1,0,0,0-7.5,3.3,71.4,71.4,0,0,0-7.9,4.7c-2.6,1.9-5.3,3.6-7.9,5.3A50,50,0,0,1,30.3,81c-2.7,1.3-5.1,1.6-9.1,1.5a13.2,13.2,0,0,0,7.1,3.3,21.4,21.4,0,0,0,6.2.1v27.7l-13.3,2.2H16.7l4.5,4.5v31L19,153.5l2.2,2.2L30,173.4l37.7,15.5V133.5l-13.3,8.9,4.4,4.4v26.6l-19.9-6.6-6.6-13.3v-31c24.3,0,37.6-15.7,37.6-20.1,0,0-17.7,8.9-26.6,8.9Z"/><path class="aee50a69-c296-4a27-a546-e690e9e04cb1" d="M124.6,100.4a26.6,26.6,0,0,1-2.4,2.3,18.5,18.5,0,0,1-2.7,1.9,17.7,17.7,0,0,1-3.1,1.5,12.7,12.7,0,0,1-3.4.5,7.7,7.7,0,0,1-5-1.6,8.6,8.6,0,0,1-2.3-4.2,17.1,17.1,0,0,1-.1-6,29.8,29.8,0,0,1,1.8-6.8,39.3,39.3,0,0,1,3.4-6.8,28,28,0,0,1,4.6-6,21.2,21.2,0,0,1,5.5-4.2,12.7,12.7,0,0,1,6.2-1.6,7.1,7.1,0,0,1,3.8.9,4.9,4.9,0,0,1,2.1,2.2,5.8,5.8,0,0,1,.5,2.9,6.9,6.9,0,0,1-1.1,2.8,5.8,5.8,0,0,1-2.5,2.1,7,7,0,0,1-3.9.5,4.7,4.7,0,0,1-2.1-.6,4.9,4.9,0,0,1-1.2-1.3,3.9,3.9,0,0,1-.7-1.6,4,4,0,0,0,2.4.2,5.6,5.6,0,0,0,1.9-.9,4.3,4.3,0,0,0,1.3-1.4,2.4,2.4,0,0,0,.3-1.6,1.5,1.5,0,0,0-.7-1.2,3.7,3.7,0,0,0-2.3-.6,6.7,6.7,0,0,0-4,1.4,18.1,18.1,0,0,0-3.6,3.7,36.9,36.9,0,0,0-2.9,5.2,46.9,46.9,0,0,0-2,6,35.4,35.4,0,0,0-1.2,6,23.4,23.4,0,0,0,0,5.3,7.3,7.3,0,0,0,1.3,3.6,2.8,2.8,0,0,0,2.6,1.4,6.7,6.7,0,0,0,2.4-.4,12.7,12.7,0,0,0,2.3-1.2,14.6,14.6,0,0,0,2.1-1.6,17,17,0,0,0,1.9-1.9,34.7,34.7,0,0,0,4-5.1H129A36.2,36.2,0,0,1,124.6,100.4Z"/><path class="ba59966e-b432-4b05-85bf-f05151eab715" d="M136.6,85.3a2.7,2.7,0,0,1,2.2.9,3.3,3.3,0,0,1,.8,2.1A7.4,7.4,0,0,1,139,91a9,9,0,0,1-1.7,2.6,8.3,8.3,0,0,1-2.7,1.9,5.9,5.9,0,0,1-3.5.5,6.5,6.5,0,0,0,.3,2.9,1.6,1.6,0,0,0,1.7,1.2,4.9,4.9,0,0,0,2.8-.9,17,17,0,0,0,2.4-2.2,18.9,18.9,0,0,0,2.2-3.1h.7a16.4,16.4,0,0,1-2.6,4.3l-1.4,1.6a10.9,10.9,0,0,1-1.7,1.3l-1.9,1a8.3,8.3,0,0,1-2.2.3,4.2,4.2,0,0,1-3.3-1.2,6.3,6.3,0,0,1-1.5-3.2,14.4,14.4,0,0,1,.3-4.1,13.3,13.3,0,0,1,1.9-4.2,10.9,10.9,0,0,1,3.3-3.1A7.7,7.7,0,0,1,136.6,85.3Zm-1,1.3a1.5,1.5,0,0,0-1.2.7,7,7,0,0,0-1.3,1.9,14.5,14.5,0,0,0-1.1,2.5c-.3,1-.5,1.9-.7,2.8a1.6,1.6,0,0,0,1.5-.2,4.7,4.7,0,0,0,1.4-1.4,9.5,9.5,0,0,0,1.1-2,9.6,9.6,0,0,0,.7-2,5.1,5.1,0,0,0,.1-1.7C136.1,86.8,135.9,86.6,135.6,86.6Z"/><path class="fb7e62ac-4aa1-4e31-9a2a-210a8ae678e7" d="M146.9,85.3l-.7,2,4-2.6a7.9,7.9,0,0,0-.1,2.6,2.3,2.3,0,0,0,.8,1.2,2,2,0,0,0,1.3.4l1.4-.4a16.3,16.3,0,0,1-2.8,2.6,7.2,7.2,0,0,1-2.4.9,2.1,2.1,0,0,1-1.8-.7,3.2,3.2,0,0,1-.9-2.1l-4,13.5h-4.2l5.2-17.4Z"/><path class="b2e5e978-25d9-4f1d-be84-e7f634e50175" d="M160.9,85.5a7.3,7.3,0,0,0-.1,2.5,2.2,2.2,0,0,0,.9,1.3,2.5,2.5,0,0,0,1.3.3l1.4-.4a12.8,12.8,0,0,1-2.4,2.3,9,9,0,0,1-2.2,1.1,16.6,16.6,0,0,1-1.3,3.5,16.5,16.5,0,0,1-1.8,3.2,10,10,0,0,1-2.3,2.3,4.8,4.8,0,0,1-2.7.9,4.6,4.6,0,0,1-2.3-.5,2.4,2.4,0,0,1-.9-1.5,6.6,6.6,0,0,1,.1-2.4l.8-3.2,3-9.6h4.1c-.4,1.4-.8,2.7-1.1,3.9s-.7,2.1-1,3.2-.6,1.9-.8,2.5L153,97a6.2,6.2,0,0,0-.4,1.6,2.4,2.4,0,0,0,0,1.2c.1.3.3.4.7.4a2.1,2.1,0,0,0,1.4-.7,6.1,6.1,0,0,0,1.4-1.7,13.6,13.6,0,0,0,1.3-2.4,13.1,13.1,0,0,0,.9-2.8,2.7,2.7,0,0,1-1.5-1.3,5.7,5.7,0,0,1-.4-2.8Z"/><path class="fe7a519f-bbee-4967-b1f9-e71974fd307f" d="M170.2,85.3a2.9,2.9,0,0,1,2.3.9,3.3,3.3,0,0,1,.7,2.1,8.2,8.2,0,0,1-2.3,5.3,6.6,6.6,0,0,1-2.7,1.9,5.8,5.8,0,0,1-3.5.5,8.3,8.3,0,0,0,.3,2.9,1.7,1.7,0,0,0,1.7,1.2,5.2,5.2,0,0,0,2.9-.9A17,17,0,0,0,172,97a18.6,18.6,0,0,0,2.1-3.1h.8a19.6,19.6,0,0,1-2.6,4.3l-1.4,1.6-1.7,1.3a12.4,12.4,0,0,1-2,1,7.8,7.8,0,0,1-2.2.3,4.5,4.5,0,0,1-3.3-1.2,6.2,6.2,0,0,1-1.4-3.2,9.6,9.6,0,0,1,.3-4.1,15.7,15.7,0,0,1,1.8-4.2,12.2,12.2,0,0,1,3.3-3.1A7.7,7.7,0,0,1,170.2,85.3Zm-.9,1.3a1.7,1.7,0,0,0-1.3.7,6.9,6.9,0,0,0-1.2,1.9,14.5,14.5,0,0,0-1.1,2.5c-.3,1-.6,1.9-.8,2.8a1.8,1.8,0,0,0,1.6-.2,4.4,4.4,0,0,0,1.3-1.4,9.6,9.6,0,0,0,1.2-2,8.9,8.9,0,0,0,.6-2,5.6,5.6,0,0,0,.2-1.7C169.7,86.8,169.6,86.6,169.3,86.6Z"/><path class="b1146b41-ae39-4a6b-8536-6b7c3de84402" d="M182.7,88.3l-.4.6c0,.2,0,.5.1.6l.3.5c.2.2.3.3.5.3s.4-.2.5-.6a2.5,2.5,0,0,0,.1-1.2,3.1,3.1,0,0,0-.5-1.2,1.7,1.7,0,0,0-1.4-.6,2.8,2.8,0,0,0-1.9,1,11.8,11.8,0,0,0-1.5,2.5,15,15,0,0,0-.9,3.2,11.7,11.7,0,0,0-.2,3.2,5.4,5.4,0,0,0,.5,2.4,1.5,1.5,0,0,0,1.4,1,4.9,4.9,0,0,0,2.8-.9,12.1,12.1,0,0,0,2.4-2.1,18.9,18.9,0,0,0,2.2-3.1h.8a16.4,16.4,0,0,1-2.6,4.3l-1.4,1.6a10.9,10.9,0,0,1-1.7,1.3l-2,1a7.8,7.8,0,0,1-2.2.3,4.5,4.5,0,0,1-3.3-1.2,6.2,6.2,0,0,1-1.4-3.2,9.6,9.6,0,0,1,.3-4.1,13,13,0,0,1,1.8-4.2,12.2,12.2,0,0,1,3.3-3.1,7.7,7.7,0,0,1,4.5-1.3,3.3,3.3,0,0,1,2.1.6,2.4,2.4,0,0,1,1.2,1.4,3.7,3.7,0,0,1,.2,1.8,4.4,4.4,0,0,1-.7,1.9,6.2,6.2,0,0,1-1.4,1.4,3.8,3.8,0,0,1-2.2.6,1.9,1.9,0,0,1-1.8-.8,2.4,2.4,0,0,1-.4-1.8,2.3,2.3,0,0,1,1-1.6A2.1,2.1,0,0,1,182.7,88.3Z"/><path class="b7b1adbe-142a-44bd-9f5c-55684f9905ae" d="M195.5,85.3a2.7,2.7,0,0,1,2.2.9,2.9,2.9,0,0,1,.8,2.1,7.4,7.4,0,0,1-.6,2.7,9,9,0,0,1-1.7,2.6,8.3,8.3,0,0,1-2.7,1.9,5.9,5.9,0,0,1-3.5.5,6.5,6.5,0,0,0,.3,2.9,1.6,1.6,0,0,0,1.7,1.2,4.9,4.9,0,0,0,2.8-.9,17,17,0,0,0,2.4-2.2,18.9,18.9,0,0,0,2.2-3.1h.7a16.4,16.4,0,0,1-2.6,4.3l-1.4,1.6a10.9,10.9,0,0,1-1.7,1.3l-1.9,1a8.3,8.3,0,0,1-2.2.3,4.5,4.5,0,0,1-3.3-1.2,5.5,5.5,0,0,1-1.4-3.2,9.6,9.6,0,0,1,.3-4.1,11.2,11.2,0,0,1,1.8-4.2,12.2,12.2,0,0,1,3.3-3.1A7.7,7.7,0,0,1,195.5,85.3Zm-1,1.3a1.5,1.5,0,0,0-1.2.7,7,7,0,0,0-1.3,1.9c-.4.7-.7,1.6-1.1,2.5s-.5,1.9-.7,2.8a1.6,1.6,0,0,0,1.5-.2,4.7,4.7,0,0,0,1.4-1.4,9.5,9.5,0,0,0,1.1-2,9.6,9.6,0,0,0,.7-2,5.1,5.1,0,0,0,.1-1.7C195,86.8,194.8,86.6,194.5,86.6Z"/><path class="b12d443d-0a4e-48eb-af9b-6ace6042d4d3" d="M205.8,85.3l-.7,2,4-2.6a7.9,7.9,0,0,0-.1,2.6,2.3,2.3,0,0,0,.8,1.2,2,2,0,0,0,1.3.4l1.4-.4a13.3,13.3,0,0,1-2.8,2.6,7.2,7.2,0,0,1-2.4.9,2.4,2.4,0,0,1-1.8-.7,3.2,3.2,0,0,1-.9-2.1l-4,13.5h-4.2l5.2-17.4Z"/><path class="b0304901-137e-49d5-8212-1c4c31558de3" d="M212.1,96.6l-.4,1.4c0,.3-.1.6,0,.8a.5.5,0,0,0,.2.4l.4.2c.2.1.6,0,1.2-.4a3.1,3.1,0,0,0,1.3-1.6h.7a13.6,13.6,0,0,1-1.3,2.4l-1.5,1.6a4,4,0,0,1-1.6.8l-1.4.3-1.1-.2a2,2,0,0,1-.9-.9,3.1,3.1,0,0,1-.3-1.8,13.3,13.3,0,0,1,.5-3l3.5-11.3h4.1L214.1,90l-1.2,3.8C212.5,95.1,212.3,96,212.1,96.6Z"/><path class="edc488e1-01c0-4972-9b23-47e74aebb962" d="M229.4,85.7c-.5,1.6-1,3.1-1.4,4.6s-.7,2.4-1.1,3.6-.6,2.1-.8,2.7a4.4,4.4,0,0,0-.4,2.2c.1.3.2.5.5.6s.7,0,1.3-.4a3.1,3.1,0,0,0,1.3-1.6h.7a13.6,13.6,0,0,1-1.3,2.4,12.1,12.1,0,0,1-1.6,1.6,3.7,3.7,0,0,1-1.5.8l-1.3.3a2.4,2.4,0,0,1-1.6-.5,2,2,0,0,1-.8-1.9,9.8,9.8,0,0,1-2.3,1.7,4.5,4.5,0,0,1-2.5.7,2.4,2.4,0,0,1-1.4-.5,2.5,2.5,0,0,1-.7-1.8,7.6,7.6,0,0,1,.2-2.9,25.7,25.7,0,0,1,1.4-4.2,13.3,13.3,0,0,1,2.7-4.1,17.3,17.3,0,0,1,3.5-2.7,10.4,10.4,0,0,1,3.7-1.1A6.4,6.4,0,0,1,229.4,85.7Zm-7.9,12.4a8.3,8.3,0,0,1,.4-1.5l2.7-9h-.5a2,2,0,0,0-1.5.9,9.5,9.5,0,0,0-1.5,2.1,23.6,23.6,0,0,0-1.2,2.8,18,18,0,0,0-.9,2.8,7.9,7.9,0,0,0-.1,2.1c.1.6.3.9.7.9a2.6,2.6,0,0,0,1-.4Z"/><path class="f0be0a40-b897-4e4b-8776-5e3bf0f21cfa" d="M215.5,81.5a1.3,1.3,0,0,1-.3.9l-.9.3a1.5,1.5,0,0,1-.6-.5,1,1,0,0,1-.1-.9,7,7,0,0,1,1.3-1.6A3.5,3.5,0,0,1,215.5,81.5Z"/><path class="a5f411da-a40d-4903-afc3-ae8401fda4e0" d="M217.9,80.2a4,4,0,0,1-.9,2c-.3.4-.7.4-1.2.2a1.7,1.7,0,0,0,.1-1.4.8.8,0,0,1,.2-.5,8.4,8.4,0,0,1,1.8-.3Z"/><path class="ab754187-9369-4cd4-a14d-0ba45a3661cf" d="M213.6,80.3h-.1a2.5,2.5,0,0,0-.4,1.4.9.9,0,0,1-1-.6,3,3,0,0,1-.2-1.6,4.3,4.3,0,0,1,.1-.5h0a5.6,5.6,0,0,1,1.5,1h.1Z"/><path class="a75265c1-48e2-4091-a300-a96ff58b0bf5" d="M217.9,79.1l-.2.5h-.1l-1.2.2h-.1a3.8,3.8,0,0,0-.1-1c0-.1,0-.1.1-.1l1.4-.3h.3C218,78.7,217.9,78.9,217.9,79.1Z"/><path class="a75265c1-48e2-4091-a300-a96ff58b0bf5" d="M218,78.4h0c0,.2-.1.4-.1.6l-.2.5h-.1l-1.2.2h-.1a3.8,3.8,0,0,0-.1-1c0-.1,0-.1.1-.1l1.4-.3Z"/><path class="aa493b2b-2ced-4982-ae16-e32bc688bbc9" d="M214.1,78.4v.2a2,2,0,0,0-.4.8h-.1l-1-.6h0a3.3,3.3,0,0,1,.1-1.4,4.5,4.5,0,0,1,1.4,1h0A.1.1,0,0,1,214.1,78.4Z"/><path class="b137ee20-6990-45c4-a93f-d5fc02bc055a" d="M215.8,79.9a.4.4,0,0,1-.1.3l-.6-1.3-1.1,1a1.4,1.4,0,0,1,.2-.6,3.8,3.8,0,0,1,1.1-1.4A4.9,4.9,0,0,1,215.8,79.9Z"/><path class="afcf333c-bdee-45c5-ba66-89d9ed52eddf" d="M216.3,76.9h0l-.6-1.2-.9.9a.6.6,0,0,1,.1-.4,4.1,4.1,0,0,1,1-1.3A3.1,3.1,0,0,1,216.3,76.9Z"/><path class="a723fea3-dc43-44d5-9a74-c6d21789a0ea" d="M214.2,77.6h-.1l-.8-.6v-1h0a3.3,3.3,0,0,1,1,.6h0v.2C214.4,77.1,214.3,77.3,214.2,77.6Z"/><path class="ae8c94f0-78d0-4e64-aa66-d1ce1741cf98" d="M217.8,77l-.3,1h0l-1,.2h-.1v-.5a.1.1,0,0,1,.1-.1.5.5,0,0,1,.2-.4h.1l.9-.2Z"/><path class="ee978857-beb4-446b-a6d4-69979ea380c9" d="M215.9,78.2l-.4-1.1-.9.8a2.9,2.9,0,0,1,1-1.3h0A2.5,2.5,0,0,1,215.9,78.2Z"/></svg>