<svg id="b7e89ed2-8c3c-4de1-b7ad-2bafe6a2699a" data-name="Capa 1" xmlns="http://www.w3.org/2000/svg" xmlns:xlink="http://www.w3.org/1999/xlink" viewBox="0 0 250 250"><defs><style>.ea99f3f7-0108-4d3d-9104-d49d31dbc50e{fill:url(#a3e14b70-acf7-4d5a-bcbc-53046aa61216);}.f31352f4-7430-4934-85d7-d5a81c16be07{fill:url(#fbec3f69-31fe-4e51-83da-58eeadd15991);}.a9552b54-ebd6-44ee-a059-9b398263d8ad{fill:url(#bf8e3db6-70a0-407c-b4ed-3f2e39e553ce);}.b7fb52ba-4eb7-4bda-84ee-0a8f2e6eaf78{fill:url(#fb47163c-2959-4aa4-be99-4ba3530cab9d);}.af914656-432a-4777-86eb-f367fad0e390{fill:url(#a2f7d631-1419-4c46-9021-386971e0e58f);}.b8d08178-1f20-4328-8502-b420592e9ccc{fill:url(#aa1fe139-a6d8-41ef-9b07-82a62cc81526);}.bd86afae-8422-4fef-acde-0efef9a98213{fill:url(#e96eb52f-2f2d-4f78-8f3c-e0beefbe5fa5);}.fbc706fe-8b75-4236-8bbe-bde652559cd2{fill:url(#b159e469-646a-4faa-a60b-e2824d2e33ac);}.b8cb5a53-32cf-441b-b207-347129a6ea1e{fill:url(#aa6d0146-5780-44ed-aeab-d5ceb1b68936);}.ad8eb225-f9ad-4378-81d0-89d8fed1191c{fill:url(#a91ee498-1b62-4e0a-a9bd-a1ba0a27fbce);}.a0ef54ee-49d1-47ce-bb8b-a17b29153d85{fill:url(#b569054f-8968-4be8-a7fe-2ba4dd162212);}.b96a7b9b-b1a2-4885-990f-6346c607023f{fill:url(#f650100c-c10a-4ba0-8115-ce750e0f503c);}.bb77dc11-c251-4316-afa9-1d9907816a3a{fill:url(#a77366bf-cd71-4cf4-b2c8-448c8d9c5cc2);}.a68a74dc-3c50-4f31-af52-37575f815a55{fill:url(#a8164883-82f6-413d-8c17-92c98a6c9583);}.f83a2bcc-9fbd-43a5-b7f4-2d8e2e3c8ec7{fill:url(#e353bb10-b684-43ba-a18d-160d66476af0);}.a233e0dd-9ff5-488c-a489-a9e731d8777b{fill:url(#b5340e2c-17f4-427f-89b3-9bdbbbf1f16d);}.b311b82b-03e8-4c39-b637-17a05cfd898b{fill:url(#f3e00c6b-f15b-4850-93f6-6ab65741eb4b);}.b95a18dc-febb-4034-8810-5760c99b9229{fill:url(#ba9aeba5-130b-4979-a5f2-6896faac5590);}.b7d8387d-3bcc-4416-a13c-2dff2cc85cb6{fill:url(#e5b6b921-47c3-4a7e-bdce-fd4bbe758b91);}.ac023057-5c5e-483b-88b9-9a9b44b6d551{fill:url(#fc7482e8-8627-4cd2-93d3-ae6f1623e15d);}.f8658bdb-086e-45ff-94a2-3e3b845c5866{fill:url(#bb4a194d-824c-4fc0-858b-ee9e4306df07);}.a088d15c-9fa0-4463-8860-04fd6fe8b83e{fill:url(#bc7b7227-0725-4837-b099-ceb6612465a8);}.a3f21f4d-90c8-4f84-b7df-9f360dde7ea9{fill:url(#a1513072-3b00-46da-8633-d7072075b679);}.e148ef76-dfe2-4d8f-a92b-b986bff9726f{fill:url(#a3935cca-3139-4024-87ac-98e1439a5b64);}.b2b8441b-ef49-4fec-88c5-d3f86342a969{fill:url(#a23d8601-4cdc-429e-a9be-ad118b4c5cb3);}.ebf7f959-ef71-403e-86c6-6a326d31cc6d{fill:url(#b10f21c4-177b-4a56-bc40-049598bae5f4);}.a400b0fd-4af0-494a-a3f9-14b3cefdd750{fill:url(#b7aeddb4-39b7-4c4a-a9e4-421c7cf85b80);}.a0dc2133-4267-402e-b7c2-642e502f7a50{fill:url(#a077c3a5-e0b3-41a7-b895-817c65d73ea3);}</style><linearGradient id="a3e14b70-acf7-4d5a-bcbc-53046aa61216" x1="190.06" y1="159.91" x2="190.06" y2="115.48" gradientUnits="userSpaceOnUse"><stop offset="0" stop-color="#f7be00"/><stop offset="0.18" stop-color="#f7bf03"/><stop offset="0.29" stop-color="#f7c10b"/><stop offset="0.38" stop-color="#f6c519"/><stop offset="0.45" stop-color="#f6ca2d"/><stop offset="0.53" stop-color="#f5d148"/><stop offset="0.59" stop-color="#f4da68"/><stop offset="0.6" stop-color="#f4db6c"/><stop offset="0.61" stop-color="#f4da67"/><stop offset="0.69" stop-color="#f5d042"/><stop offset="0.77" stop-color="#f6c825"/><stop offset="0.85" stop-color="#f7c211"/><stop offset="0.93" stop-color="#f7bf04"/><stop offset="1" stop-color="#f7be00"/></linearGradient><linearGradient id="fbec3f69-31fe-4e51-83da-58eeadd15991" x1="120.24" y1="159.91" x2="120.24" y2="115.48" xlink:href="#a3e14b70-acf7-4d5a-bcbc-53046aa61216"/><linearGradient id="bf8e3db6-70a0-407c-b4ed-3f2e39e553ce" x1="164.67" y1="159.91" x2="164.67" y2="115.48" xlink:href="#a3e14b70-acf7-4d5a-bcbc-53046aa61216"/><linearGradient id="fb47163c-2959-4aa4-be99-4ba3530cab9d" x1="142.46" y1="159.91" x2="142.46" y2="115.48" xlink:href="#a3e14b70-acf7-4d5a-bcbc-53046aa61216"/><linearGradient id="a2f7d631-1419-4c46-9021-386971e0e58f" x1="92.47" y1="159.91" x2="92.47" y2="90.09" xlink:href="#a3e14b70-acf7-4d5a-bcbc-53046aa61216"/><linearGradient id="aa1fe139-a6d8-41ef-9b07-82a62cc81526" x1="66.82" y1="171.02" x2="66.82" y2="80.57" xlink:href="#a3e14b70-acf7-4d5a-bcbc-53046aa61216"/><linearGradient id="e96eb52f-2f2d-4f78-8f3c-e0beefbe5fa5" x1="120.79" y1="112.03" x2="120.79" y2="85.39" gradientUnits="userSpaceOnUse"><stop offset="0" stop-color="#fff"/><stop offset="0.26" stop-color="#f6f6f6"/><stop offset="0.68" stop-color="#dedede"/><stop offset="0.75" stop-color="#d9d9d9"/><stop offset="1" stop-color="#fff"/></linearGradient><linearGradient id="b159e469-646a-4faa-a60b-e2824d2e33ac" x1="131.15" y1="109.06" x2="131.15" y2="96.78" xlink:href="#e96eb52f-2f2d-4f78-8f3c-e0beefbe5fa5"/><linearGradient id="aa6d0146-5780-44ed-aeab-d5ceb1b68936" x1="139.51" y1="109.23" x2="139.51" y2="96.39" xlink:href="#e96eb52f-2f2d-4f78-8f3c-e0beefbe5fa5"/><linearGradient id="a91ee498-1b62-4e0a-a9bd-a1ba0a27fbce" x1="147.27" y1="109.13" x2="147.27" y2="96.78" xlink:href="#e96eb52f-2f2d-4f78-8f3c-e0beefbe5fa5"/><linearGradient id="b569054f-8968-4be8-a7fe-2ba4dd162212" x1="155.24" y1="109.06" x2="155.24" y2="96.78" xlink:href="#e96eb52f-2f2d-4f78-8f3c-e0beefbe5fa5"/><linearGradient id="f650100c-c10a-4ba0-8115-ce750e0f503c" x1="164.26" y1="109.06" x2="164.26" y2="96.78" xlink:href="#e96eb52f-2f2d-4f78-8f3c-e0beefbe5fa5"/><linearGradient id="a77366bf-cd71-4cf4-b2c8-448c8d9c5cc2" x1="173.34" y1="109.06" x2="173.34" y2="96.78" xlink:href="#e96eb52f-2f2d-4f78-8f3c-e0beefbe5fa5"/><linearGradient id="a8164883-82f6-413d-8c17-92c98a6c9583" x1="181.7" y1="109.23" x2="181.7" y2="96.39" xlink:href="#e96eb52f-2f2d-4f78-8f3c-e0beefbe5fa5"/><linearGradient id="e353bb10-b684-43ba-a18d-160d66476af0" x1="186.69" y1="109.13" x2="186.69" y2="96.78" xlink:href="#e96eb52f-2f2d-4f78-8f3c-e0beefbe5fa5"/><linearGradient id="b5340e2c-17f4-427f-89b3-9bdbbbf1f16d" x1="194.19" y1="109.13" x2="194.19" y2="96.69" xlink:href="#e96eb52f-2f2d-4f78-8f3c-e0beefbe5fa5"/><linearGradient id="f3e00c6b-f15b-4850-93f6-6ab65741eb4b" x1="188.89" y1="94.93" x2="188.89" y2="92.78" xlink:href="#e96eb52f-2f2d-4f78-8f3c-e0beefbe5fa5"/><linearGradient id="ba9aeba5-130b-4979-a5f2-6896faac5590" x1="190.55" y1="94.81" x2="190.55" y2="93.16" xlink:href="#e96eb52f-2f2d-4f78-8f3c-e0beefbe5fa5"/><linearGradient id="e5b6b921-47c3-4a7e-bdce-fd4bbe758b91" x1="187.62" y1="94.31" x2="187.62" y2="92.3" xlink:href="#e96eb52f-2f2d-4f78-8f3c-e0beefbe5fa5"/><linearGradient id="fc7482e8-8627-4cd2-93d3-ae6f1623e15d" x1="190.74" y1="92.96" x2="190.74" y2="91.89" xlink:href="#e96eb52f-2f2d-4f78-8f3c-e0beefbe5fa5"/><linearGradient id="bb4a194d-824c-4fc0-858b-ee9e4306df07" x1="188" y1="92.56" x2="188" y2="91.08" xlink:href="#e96eb52f-2f2d-4f78-8f3c-e0beefbe5fa5"/><linearGradient id="bc7b7227-0725-4837-b099-ceb6612465a8" x1="189.17" y1="93.14" x2="189.17" y2="91.53" xlink:href="#e96eb52f-2f2d-4f78-8f3c-e0beefbe5fa5"/><linearGradient id="a1513072-3b00-46da-8633-d7072075b679" x1="189.62" y1="90.85" x2="189.62" y2="89.45" xlink:href="#e96eb52f-2f2d-4f78-8f3c-e0beefbe5fa5"/><linearGradient id="a3935cca-3139-4024-87ac-98e1439a5b64" x1="188.38" y1="91.35" x2="188.38" y2="90.21" xlink:href="#e96eb52f-2f2d-4f78-8f3c-e0beefbe5fa5"/><linearGradient id="a23d8601-4cdc-429e-a9be-ad118b4c5cb3" x1="190.74" y1="91.7" x2="190.74" y2="90.85" xlink:href="#e96eb52f-2f2d-4f78-8f3c-e0beefbe5fa5"/><linearGradient id="b10f21c4-177b-4a56-bc40-049598bae5f4" x1="189.42" y1="91.69" x2="189.42" y2="90.58" xlink:href="#e96eb52f-2f2d-4f78-8f3c-e0beefbe5fa5"/><linearGradient id="b7aeddb4-39b7-4c4a-a9e4-421c7cf85b80" x1="125" y1="201.17" x2="125" y2="48.83" gradientUnits="userSpaceOnUse"><stop offset="0" stop-color="#fff"/><stop offset="0.25" stop-color="#d9d9d9"/><stop offset="0.5" stop-color="#fff"/><stop offset="0.75" stop-color="#d9d9d9"/><stop offset="1" stop-color="#fff"/></linearGradient><linearGradient id="a077c3a5-e0b3-41a7-b895-817c65d73ea3" y1="195.97" x2="125" y2="54.03" xlink:href="#b7aeddb4-39b7-4c4a-a9e4-421c7cf85b80"/></defs><path class="ea99f3f7-0108-4d3d-9104-d49d31dbc50e" d="M201.2,134.5l-1.6-1.6V117.1l1.6-1.6H179l1.5,1.6v12.7l1.6,1.5,6.4-3.1-1.6-1.6v-4.8a6.4,6.4,0,0,1,6.3,6.4c0,4.6-3.8,6.3-14.2,6.3l1.5,1.6v22.2l-1.5,1.6h22.2l-1.6-1.6V136.1Zm-14.3,19.1V140.9h0c2.3,0,5.9-1.8,6.3-3v15.7Z"/><path class="f31352f4-7430-4934-85d7-d5a81c16be07" d="M131.3,134.5l-1.5-1.6V117.1l1.5-1.6H109.1l1.6,1.6v12.7l1.6,1.5,6.4-3.1-1.6-1.6v-4.8a6.4,6.4,0,0,1,6.3,6.4c0,4.6-3.9,6.3-14.3,6.3l1.6,1.6v22.2l-1.6,1.6h22.2l-1.5-1.6V136.1Zm-14.2,19.1V140.9h0c2.3,0,5.9-1.8,6.3-3v15.7Z"/><polygon class="a9552b54-ebd6-44ee-a059-9b398263d8ad" points="174.2 158.3 175.8 159.9 153.6 159.9 155.2 158.3 155.2 136.1 153.6 134.5 155.2 132.9 155.2 117.1 153.6 115.5 175.8 115.5 174.2 117.1 174.2 132.9 166.3 128.2 167.8 126.6 167.8 121.8 161.5 122.1 161.5 132.9 163.1 134.5 161.5 136.1 161.5 153.6 167.9 153.6 167.8 148.8 166.3 147.2 174.2 142.5 174.2 158.3"/><path class="b7fb52ba-4eb7-4bda-84ee-0a8f2e6eaf78" d="M152,115.5l-1.6,1.6v9.5h-1.6c0-3.7-1.6-4.8-3.2-4.8s-4.7,3.2-4.7,6.4v4.7l1.6,1.6-1.6,1.6v22.2l1.6,1.6h-9.6l1.6-1.6V136.1l-1.6-1.6,1.6-1.6V118.7l-1.6-3.2c4,0,8,2.4,8,4.7,0-2.3,3.2-4.7,6.3-4.7Z"/><polygon class="af914656-432a-4777-86eb-f367fad0e390" points="88.5 159.9 98 159.9 96.4 158.3 96.4 136.1 98 134.5 96.4 132.9 96.4 99.6 98 98 86.9 90.1 90.1 98 90.1 132.9 88.5 134.5 90.1 136.1 90.1 158.3 88.5 159.9"/><path class="b8d08178-1f20-4328-8502-b420592e9ccc" d="M66.3,95.1l3.1-1.8c1.3-.8,3.3-2.3,4.7-3.4s4.1-3.3,4.9-4V90l-1.6,1.6,6.4,6.3V82.5A8.1,8.1,0,0,1,86.4,81a16.1,16.1,0,0,0-4.2-.4,9.8,9.8,0,0,0-2.8.4,40.5,40.5,0,0,0-5.3,2.3,57,57,0,0,0-5.7,3.4l-5.6,3.8A41.8,41.8,0,0,1,57,93.7a13.3,13.3,0,0,1-6.6,1.1,9,9,0,0,0,5.1,2.3,13,13,0,0,0,4.4.1v19.9l-9.5,1.6H47.3l3.1,3.1V144l-1.6,1.6,1.6,1.6,6.4,12.7L83.7,171V131.3l-9.6,6.4,3.2,3.2v19l-14.3-4.8-4.7-9.5V123.4c17.4,0,26.9-11.2,26.9-14.4,0,0-12.7,6.4-19,6.4Z"/><path class="bd86afae-8422-4fef-acde-0efef9a98213" d="M124.5,107.6a12.9,12.9,0,0,1-1.7,1.6l-2,1.4a9.1,9.1,0,0,1-2.2,1.1,9.9,9.9,0,0,1-2.4.3,5.2,5.2,0,0,1-3.6-1.1,5.5,5.5,0,0,1-1.6-3,10.3,10.3,0,0,1-.1-4.3,18.8,18.8,0,0,1,1.3-4.9,27.7,27.7,0,0,1,2.4-4.9,23.6,23.6,0,0,1,3.3-4.2,14.9,14.9,0,0,1,4-3.1,9.9,9.9,0,0,1,4.4-1.1,5.4,5.4,0,0,1,2.7.6,4,4,0,0,1,1.5,1.7,3.4,3.4,0,0,1,.3,2,3.7,3.7,0,0,1-.7,2,6.5,6.5,0,0,1-1.8,1.5,5,5,0,0,1-2.8.4,3.3,3.3,0,0,1-1.5-.5,3.8,3.8,0,0,1-.9-.9,3.7,3.7,0,0,1-.5-1.1,3.3,3.3,0,0,0,1.7.1,3,3,0,0,0,1.4-.6,3.1,3.1,0,0,0,.9-1.1,2.3,2.3,0,0,0,.3-1.1,1.6,1.6,0,0,0-.6-.9,3,3,0,0,0-1.6-.3,5.2,5.2,0,0,0-2.9.9,10.9,10.9,0,0,0-2.5,2.7,18.8,18.8,0,0,0-2.1,3.7,36.6,36.6,0,0,0-1.5,4.3,35.8,35.8,0,0,0-.8,4.3,24,24,0,0,0,0,3.8,7.9,7.9,0,0,0,.9,2.6,2.1,2.1,0,0,0,1.9,1,5.1,5.1,0,0,0,1.7-.3l1.6-.8,1.6-1.2,1.3-1.4a26.8,26.8,0,0,0,2.9-3.6h.8A23.2,23.2,0,0,1,124.5,107.6Z"/><path class="fbc706fe-8b75-4236-8bbe-bde652559cd2" d="M133.1,96.8a2.1,2.1,0,0,1,1.6.6,2.5,2.5,0,0,1,.5,1.5,5.1,5.1,0,0,1-.4,2,7.6,7.6,0,0,1-1.2,1.9,6.9,6.9,0,0,1-2,1.3,4,4,0,0,1-2.5.4,5.9,5.9,0,0,0,.2,2,1.2,1.2,0,0,0,1.2.9,3.3,3.3,0,0,0,2.1-.7,8,8,0,0,0,1.7-1.5,12.5,12.5,0,0,0,1.6-2.2h.5a12.8,12.8,0,0,1-1.9,3l-1,1.2-1.2.9a6.1,6.1,0,0,1-1.4.7,4.1,4.1,0,0,1-1.6.3,2.6,2.6,0,0,1-2.3-1,3.5,3.5,0,0,1-1-2.2,6.3,6.3,0,0,1,.2-3,8.9,8.9,0,0,1,3.6-5.2A6,6,0,0,1,133.1,96.8Zm-.7.9a1.4,1.4,0,0,0-.9.5,8.5,8.5,0,0,0-.9,1.4,7.5,7.5,0,0,0-.8,1.8,14.6,14.6,0,0,0-.5,2,1.2,1.2,0,0,0,1.1-.2,4.1,4.1,0,0,0,1-.9l.8-1.5a8.8,8.8,0,0,0,.5-1.5,4,4,0,0,0,0-1.1C132.7,97.9,132.6,97.7,132.4,97.7Z"/><path class="b8cb5a53-32cf-441b-b207-347129a6ea1e" d="M140.4,96.8l-.4,1.5,2.8-1.9a5.3,5.3,0,0,0,0,1.8,1.9,1.9,0,0,0,.5.9,1.2,1.2,0,0,0,1,.2l1-.2a8.4,8.4,0,0,1-2.1,1.8,4.7,4.7,0,0,1-1.7.7,2.1,2.1,0,0,1-1.3-.5,2.6,2.6,0,0,1-.6-1.5l-2.9,9.6h-3l3.8-12.4Z"/><path class="ad8eb225-f9ad-4378-81d0-89d8fed1191c" d="M150.5,96.9a3.8,3.8,0,0,0-.1,1.8,2.9,2.9,0,0,0,.6,1l1,.2,1-.3a12,12,0,0,1-1.7,1.6,4.8,4.8,0,0,1-1.6.8,10.6,10.6,0,0,1-.9,2.5,12.6,12.6,0,0,1-1.3,2.3,6.9,6.9,0,0,1-1.7,1.7,3.3,3.3,0,0,1-1.9.6,3.2,3.2,0,0,1-1.6-.3,1.9,1.9,0,0,1-.7-1.1,5,5,0,0,1,.1-1.7,11.2,11.2,0,0,1,.6-2.3l2.1-6.9h3l-.9,2.8c-.2.8-.5,1.5-.7,2.3a9.3,9.3,0,0,1-.6,1.8c-.1.5-.3,1-.4,1.4l-.3,1.2a2.5,2.5,0,0,0,.1.9c0,.2.2.3.4.3a1.6,1.6,0,0,0,1-.5,6.5,6.5,0,0,0,1.1-1.2,15,15,0,0,0,.9-1.8,11.7,11.7,0,0,0,.6-2,1.5,1.5,0,0,1-1-.9,3.2,3.2,0,0,1-.3-2Z"/><path class="a0ef54ee-49d1-47ce-bb8b-a17b29153d85" d="M157.2,96.8a2.1,2.1,0,0,1,1.6.6,2.5,2.5,0,0,1,.5,1.5,5.1,5.1,0,0,1-.4,2,7.6,7.6,0,0,1-1.2,1.9,6.9,6.9,0,0,1-2,1.3,4,4,0,0,1-2.5.4,5.9,5.9,0,0,0,.2,2,1.2,1.2,0,0,0,1.2.9,3.3,3.3,0,0,0,2.1-.7,8,8,0,0,0,1.7-1.5A12.5,12.5,0,0,0,160,103h.5a12.8,12.8,0,0,1-1.9,3l-1,1.2-1.2.9a6.1,6.1,0,0,1-1.4.7,4.1,4.1,0,0,1-1.6.3,2.6,2.6,0,0,1-2.3-1,3.5,3.5,0,0,1-1-2.2,6.3,6.3,0,0,1,.2-3,8.9,8.9,0,0,1,3.6-5.2A6,6,0,0,1,157.2,96.8Zm-.7.9a1.4,1.4,0,0,0-.9.5,8.5,8.5,0,0,0-.9,1.4,7.5,7.5,0,0,0-.8,1.8,14.6,14.6,0,0,0-.5,2,1.2,1.2,0,0,0,1.1-.2,4.1,4.1,0,0,0,1-.9l.8-1.5a8.8,8.8,0,0,0,.5-1.5,4,4,0,0,0,0-1.1C156.8,97.9,156.7,97.7,156.5,97.7Z"/><path class="b96a7b9b-b1a2-4885-990f-6346c607023f" d="M166.1,99c-.2.1-.2.2-.3.4a.6.6,0,0,0,.1.4.5.5,0,0,0,.2.4h.4a.3.3,0,0,0,.3-.3,2.8,2.8,0,0,0,.1-.9,3.6,3.6,0,0,0-.4-.9,1.3,1.3,0,0,0-.9-.4,2.1,2.1,0,0,0-1.4.7,7.8,7.8,0,0,0-1.1,1.8,15.5,15.5,0,0,0-.7,2.3,9.1,9.1,0,0,0-.1,2.3,4,4,0,0,0,.3,1.7,1.2,1.2,0,0,0,1.1.7,3.6,3.6,0,0,0,2-.6l1.7-1.5a17,17,0,0,0,1.5-2.2h.6a12.6,12.6,0,0,1-1.8,3l-1,1.2-1.2.9-1.5.7a4.1,4.1,0,0,1-1.6.3,2.6,2.6,0,0,1-2.3-1,3.5,3.5,0,0,1-1-2.2,6.3,6.3,0,0,1,.2-3,8.9,8.9,0,0,1,3.6-5.2,6.3,6.3,0,0,1,3.3-.9,2.4,2.4,0,0,1,1.5.4,1.9,1.9,0,0,1,.8,1,3,3,0,0,1,.2,1.3,5.8,5.8,0,0,1-.5,1.4,3.6,3.6,0,0,1-1.1,1,2.4,2.4,0,0,1-1.5.4,1.4,1.4,0,0,1-1.3-.6,1.9,1.9,0,0,1-.3-1.3,1.9,1.9,0,0,1,.7-1.1A1.2,1.2,0,0,1,166.1,99Z"/><path class="bb77dc11-c251-4316-afa9-1d9907816a3a" d="M175.3,96.8a2.1,2.1,0,0,1,1.6.6,2.5,2.5,0,0,1,.5,1.5,5.1,5.1,0,0,1-.4,2,7.6,7.6,0,0,1-1.2,1.9,6.9,6.9,0,0,1-2,1.3,4.2,4.2,0,0,1-2.5.4,5.9,5.9,0,0,0,.2,2,1.2,1.2,0,0,0,1.2.9,3.3,3.3,0,0,0,2.1-.7,8,8,0,0,0,1.7-1.5,12.5,12.5,0,0,0,1.6-2.2h.5a12.8,12.8,0,0,1-1.9,3l-1,1.2-1.2.9a6.1,6.1,0,0,1-1.4.7,4.1,4.1,0,0,1-1.6.3,2.6,2.6,0,0,1-2.3-1,4.2,4.2,0,0,1-1.1-2.2,8.1,8.1,0,0,1,.3-3,8.9,8.9,0,0,1,3.6-5.2A6,6,0,0,1,175.3,96.8Zm-.7.9a1.4,1.4,0,0,0-.9.5,8.5,8.5,0,0,0-.9,1.4,7.5,7.5,0,0,0-.8,1.8,14.6,14.6,0,0,0-.5,2,1.2,1.2,0,0,0,1.1-.2l1-.9.8-1.5a8.3,8.3,0,0,0,.4-1.5,2.2,2.2,0,0,0,.1-1.1C174.9,97.9,174.8,97.7,174.6,97.7Z"/><path class="a68a74dc-3c50-4f31-af52-37575f815a55" d="M182.6,96.8l-.4,1.5,2.8-1.9a3.6,3.6,0,0,0,0,1.8,1.9,1.9,0,0,0,.5.9,1.2,1.2,0,0,0,1,.2l1-.2a8.4,8.4,0,0,1-2.1,1.8,4.7,4.7,0,0,1-1.7.7,2.1,2.1,0,0,1-1.3-.5,2.6,2.6,0,0,1-.6-1.5l-2.9,9.6h-3l3.8-12.4Z"/><path class="f83a2bcc-9fbd-43a5-b7f4-2d8e2e3c8ec7" d="M187.1,104.9a4.4,4.4,0,0,0-.2,1,.6.6,0,0,0,0,.6.4.4,0,0,0,.1.3h.3a1,1,0,0,0,.8-.3,2.5,2.5,0,0,0,1-1.2h.5a7.7,7.7,0,0,1-1,1.8l-1,1.1-1.1.6a2.3,2.3,0,0,1-1.1.2,1.3,1.3,0,0,1-.8-.2,1.2,1.2,0,0,1-.6-.6,1.7,1.7,0,0,1-.2-1.3,6.8,6.8,0,0,1,.4-2.1l2.5-8.1h2.9c-.4,1.2-.7,2.3-1,3.4l-.9,2.7A12.4,12.4,0,0,1,187.1,104.9Z"/><path class="a233e0dd-9ff5-488c-a489-a9e731d8777b" d="M199.5,97.1c-.3,1.1-.7,2.2-1,3.2a19.8,19.8,0,0,1-.8,2.6c-.2.9-.4,1.5-.5,2a2.8,2.8,0,0,0-.3,1.6c0,.2.2.3.3.4a1.4,1.4,0,0,0,1-.3,2.4,2.4,0,0,0,.9-1.2h.5a15,15,0,0,1-.9,1.8,11.4,11.4,0,0,1-1.1,1.1l-1.1.6a2,2,0,0,1-1,.2,2,2,0,0,1-1.1-.3c-.4-.2-.6-.7-.6-1.4a6.1,6.1,0,0,1-1.6,1.2,3.1,3.1,0,0,1-1.8.5,1.2,1.2,0,0,1-1-.4,2.3,2.3,0,0,1-.6-1.2,8.2,8.2,0,0,1,.2-2.1,15,15,0,0,1,1-3,10.5,10.5,0,0,1,2-3,11,11,0,0,1,2.5-1.9,7.9,7.9,0,0,1,2.6-.8A4.7,4.7,0,0,1,199.5,97.1Zm-5.6,8.9.3-1.1,1.9-6.5h-.4a1.7,1.7,0,0,0-1.1.6,9.7,9.7,0,0,0-1,1.5l-.9,2a8.9,8.9,0,0,0-.6,2,8.6,8.6,0,0,0-.1,1.5c.1.4.2.6.5.6a1,1,0,0,0,.7-.2Z"/><path class="b311b82b-03e8-4c39-b637-17a05cfd898b" d="M189.6,94.1a.9.9,0,0,1-.3.7.6.6,0,0,1-.6.1l-.4-.3a1.7,1.7,0,0,1-.1-.7,2.7,2.7,0,0,1,1-1.1A2.8,2.8,0,0,1,189.6,94.1Z"/><path class="b95a18dc-febb-4034-8810-5760c99b9229" d="M191.3,93.2a2.5,2.5,0,0,1-.6,1.4.8.8,0,0,1-.9.1,1.2,1.2,0,0,0,.1-1c0-.2,0-.3.1-.3a2.7,2.7,0,0,1,1.3-.2Z"/><path class="b7d8387d-3bcc-4416-a13c-2dff2cc85cb6" d="M188.2,93.2h0a2.1,2.1,0,0,0-.4,1,.7.7,0,0,1-.7-.4,2.5,2.5,0,0,1-.1-1.2c0-.1.1-.2.1-.4h0a4.1,4.1,0,0,1,1.1.7h0Z"/><path class="ac023057-5c5e-483b-88b9-9a9b44b6d551" d="M191.3,92.4l-.2.3h0l-.9.2h0a2.2,2.2,0,0,0-.1-.8h.1l1-.2h.2C191.4,92.1,191.3,92.2,191.3,92.4Z"/><path class="ac023057-5c5e-483b-88b9-9a9b44b6d551" d="M191.4,91.9h0c0,.2-.1.3-.1.5l-.2.3h0l-.9.2h0a2.2,2.2,0,0,0-.1-.8h.1l1-.2Z"/><path class="f8658bdb-086e-45ff-94a2-3e3b845c5866" d="M188.6,91.9h-.1l-.3.6h0l-.8-.4h0a2.8,2.8,0,0,1,.1-.9,1.7,1.7,0,0,1,1,.7h.1Z"/><path class="a088d15c-9fa0-4463-8860-04fd6fe8b83e" d="M189.8,92.9c0,.1,0,.2-.1.2l-.4-.9-.8.7c0-.1.1-.3.1-.4a3.9,3.9,0,0,1,.8-1A2.5,2.5,0,0,1,189.8,92.9Z"/><path class="a3f21f4d-90c8-4f84-b7df-9f360dde7ea9" d="M190.2,90.8h-.1l-.3-.8-.7.6v-.3l.8-.9A2.4,2.4,0,0,1,190.2,90.8Z"/><path class="e148ef76-dfe2-4d8f-a92b-b986bff9726f" d="M188.6,91.3h0l-.6-.4v-.7h0l.7.4h0v.2C188.8,90.9,188.7,91.1,188.6,91.3Z"/><path class="b2b8441b-ef49-4fec-88c5-d3f86342a969" d="M191.2,90.9a1.4,1.4,0,0,1-.2.6h-.7v-.4h0l.2-.3h.7Z"/><path class="ebf7f959-ef71-403e-86c6-6a326d31cc6d" d="M189.9,91.7l-.3-.8-.7.6a2,2,0,0,1,.7-.9h0C189.8,91,190,91.3,189.9,91.7Z"/><path class="a400b0fd-4af0-494a-a3f9-14b3cefdd750" d="M125,201.2c-23.2,0-45.1-7.6-61.9-21.3H39.5v-.6A15.7,15.7,0,0,0,24,163.5h-.6V87.1H24A15.6,15.6,0,0,0,39.5,71.4v-.6H62.3c16.8-14.2,39.1-22,62.7-22s45.9,7.8,62.7,22h22.8v.6A15.6,15.6,0,0,0,226,87.1h.6v76.4H226a15.7,15.7,0,0,0-15.5,15.8v.6H186.9C170.1,193.6,148.2,201.2,125,201.2ZM40.6,178.7H63.7C80.2,192.5,102,200,125,200s44.8-7.5,61.3-21.2h23.1a16.8,16.8,0,0,1,16-16.3V88.3a16.8,16.8,0,0,1-16-16.3H187.3l-.2-.2C170.5,57.7,148.4,50,125,50S79.5,57.7,62.9,71.8l-.2.2H40.6a16.8,16.8,0,0,1-16,16.3v74.1A16.8,16.8,0,0,1,40.6,178.7Z"/><path class="a0dc2133-4267-402e-b7c2-642e502f7a50" d="M125,58.6c21.5,0,41.6,7.1,56.7,19.9l2.5,2.1h18.4a25.4,25.4,0,0,0,14.3,14.6v60.3a25.4,25.4,0,0,0-14.3,14.6H183.4l-2.5,2c-15,12.4-34.8,19.3-55.9,19.3s-40.9-6.9-55.9-19.3l-2.5-2H47.4a25.4,25.4,0,0,0-14.3-14.6V95.2A25.4,25.4,0,0,0,47.4,80.6H65.8l2.5-2.1C83.4,65.7,103.5,58.6,125,58.6Zm0-4.6c-22.5,0-43.7,7.5-59.6,20.9L64.1,76h-20A20.7,20.7,0,0,1,28.6,91.8v67.1a20.7,20.7,0,0,1,15.5,15.8H64.9l1.3,1C82,188.8,102.9,196,125,196s43-7.2,58.8-20.3l1.3-1h20.8a20.7,20.7,0,0,1,15.5-15.8V91.8A20.7,20.7,0,0,1,205.9,76h-20l-1.3-1.1C168.7,61.5,147.5,54,125,54Z"/></svg>