<svg id="bf644819-8ff9-4c58-9c6f-3e96e281859e" data-name="Capa 1" xmlns="http://www.w3.org/2000/svg" viewBox="0 0 250 250"><defs><style>.a32eb326-9da3-4076-82cb-fdc66596d30a{fill:#fff;}.e46dbbff-ed1a-4783-8275-082ca4af7672{fill:#9f7270;}.a26ff7a6-8153-4bc1-a669-38a9fb0dca72{fill:#702216;}.aaffe78d-1d39-4362-a8b8-8bac0f59f6c7{fill:#f9f5b6;}.e228545f-7f1e-492d-976a-f246a9b4226b{fill:#ddd372;}.e345bc4e-c760-4f88-8835-e4cf9fd4ec3b{fill:#e2af23;}.bc16d333-3b05-4ac4-a849-b80d62e49bc4{fill:#f7f4da;}.ac8b29a5-a387-401b-bc15-1ebf53541836{fill:#603e3e;}.f33872bd-1811-464c-8391-737393722b1a{fill:#280a07;}.aa29bdd1-cd93-4ba9-8535-90d4fddcd7c3{fill:#c4aea5;}</style></defs><path class="a32eb326-9da3-4076-82cb-fdc66596d30a" d="M149.9,96.9H102.5s-7.9,20.6-.4,36.8c0,0,11,27.6,5.8,48.1,0,0-3.6,7.2,4.1,7.4h28.3c7.7-.2,4.1-7.4,4.1-7.4-5.2-20.5,5.8-48.1,5.8-48.1C157.7,117.5,149.9,96.9,149.9,96.9Z"/><path class="e46dbbff-ed1a-4783-8275-082ca4af7672" d="M147.5,104.3H104.8c-1.6,6.3-3.9,15.2.8,25.2h0v.2c.5,1.2,11.5,24.8,5.9,46.8,0,.1-.1.2-.1.4,0,1.9,6.6,3.5,14.6,3.5s14.6-1.6,14.6-3.5v-.4h0c-5.6-21.9,5.5-45.6,5.9-46.8v-.2h.1C151.4,119.5,149.1,110.6,147.5,104.3Z"/><path class="a26ff7a6-8153-4bc1-a669-38a9fb0dca72" d="M103.1,120.8a30.8,30.8,0,0,0,2.5,8.7h0v.2c.5,1.2,11.5,24.8,5.9,46.8,0,.1-.1.2-.1.4,0,1.9,6.6,3.5,14.6,3.5s14.6-1.6,14.6-3.5v-.4h0c-5.6-21.9,5.5-45.6,5.9-46.8v-.2h.1a34.2,34.2,0,0,0,2.4-8.7Z"/><path class="aaffe78d-1d39-4362-a8b8-8bac0f59f6c7" d="M100.3,83.4a3.6,3.6,0,1,1-3.6-3.6A3.6,3.6,0,0,1,100.3,83.4Z"/><path class="aaffe78d-1d39-4362-a8b8-8bac0f59f6c7" d="M148.9,72.6a3.3,3.3,0,1,1-3.2-3.3A3.2,3.2,0,0,1,148.9,72.6Z"/><path class="aaffe78d-1d39-4362-a8b8-8bac0f59f6c7" d="M156.2,80.1a2.3,2.3,0,0,1-2.3,2.3,2.3,2.3,0,0,1-2.3-2.3,2.3,2.3,0,0,1,2.3-2.3A2.4,2.4,0,0,1,156.2,80.1Z"/><path class="aaffe78d-1d39-4362-a8b8-8bac0f59f6c7" d="M149,87.7V87a6.5,6.5,0,0,0-6.6-6.5,6.7,6.7,0,0,0-3.1.7,11,11,0,0,0-21.6-.3,9.5,9.5,0,0,0-5.5-1.8,9.2,9.2,0,0,0-9.2,9.2,1.9,1.9,0,0,0,.1.8h-1.4a7.2,7.2,0,0,0,0,14.4,7.6,7.6,0,0,0,2.1-.3,6.5,6.5,0,0,0,6.4,5.6,6.8,6.8,0,0,0,5.8-3.4,9.1,9.1,0,0,0,5.7,2.1,9.2,9.2,0,0,0,5.6-1.9,6.5,6.5,0,0,0,5.9,3.9,6.6,6.6,0,0,0,5.7-3.3v19.1a3.5,3.5,0,0,0,3.5,3.5,3.5,3.5,0,0,0,3.5-3.5V104.4a10,10,0,0,0,2.4.4,8.6,8.6,0,0,0,.7-17.1Z"/><path class="a32eb326-9da3-4076-82cb-fdc66596d30a" d="M78.9,69.5H31.5s-7.9,20.6-.4,36.8c0,0,11,27.6,5.8,48.1,0,0-3.6,7.2,4.1,7.4H69.3c7.7-.2,4.1-7.4,4.1-7.4-5.2-20.5,5.8-48.1,5.8-48.1C86.7,90.1,78.9,69.5,78.9,69.5Z"/><path class="e228545f-7f1e-492d-976a-f246a9b4226b" d="M76.5,76.9H33.8c-1.6,6.3-3.9,15.2.8,25.2h0v.2c.5,1.2,11.5,24.8,5.9,46.7,0,.2-.1.3-.1.4,0,2,6.6,3.6,14.6,3.6s14.6-1.6,14.6-3.6a.4.4,0,0,0-.1-.3h.1c-5.6-22,5.5-45.6,5.9-46.8v-.2h.1C80.4,92.1,78.1,83.2,76.5,76.9Z"/><path class="e345bc4e-c760-4f88-8835-e4cf9fd4ec3b" d="M32.1,93.3a30.5,30.5,0,0,0,2.5,8.8h0v.2c.5,1.2,11.5,24.8,5.9,46.7,0,.2-.1.3-.1.4,0,2,6.6,3.6,14.6,3.6s14.6-1.6,14.6-3.6a.4.4,0,0,0-.1-.3h.1c-5.6-22,5.5-45.6,5.9-46.8v-.2h.1a33.8,33.8,0,0,0,2.4-8.8Z"/><path class="bc16d333-3b05-4ac4-a849-b80d62e49bc4" d="M29.3,56a3.6,3.6,0,1,1-3.6-3.6A3.6,3.6,0,0,1,29.3,56Z"/><path class="bc16d333-3b05-4ac4-a849-b80d62e49bc4" d="M77.9,45.2a3.3,3.3,0,0,1-6.5,0,3.3,3.3,0,1,1,6.5,0Z"/><path class="bc16d333-3b05-4ac4-a849-b80d62e49bc4" d="M85.2,52.7A2.3,2.3,0,0,1,82.9,55a2.3,2.3,0,0,1,0-4.6A2.3,2.3,0,0,1,85.2,52.7Z"/><path class="bc16d333-3b05-4ac4-a849-b80d62e49bc4" d="M78,60.3v-.7A6.6,6.6,0,0,0,71.4,53a6.8,6.8,0,0,0-3.1.8,11,11,0,0,0-21.6-.3,9.5,9.5,0,0,0-5.5-1.8A9.2,9.2,0,0,0,32,60.9a2.2,2.2,0,0,0,.1.8H30.7a7.2,7.2,0,0,0,0,14.4,7.6,7.6,0,0,0,2.1-.3,6.5,6.5,0,0,0,6.4,5.6A6.8,6.8,0,0,0,45,77.9,9.1,9.1,0,0,0,50.7,80a9.2,9.2,0,0,0,5.6-1.9,6.4,6.4,0,0,0,5.9,3.8,6.5,6.5,0,0,0,5.7-3.2V97.8a3.5,3.5,0,0,0,3.5,3.5,3.5,3.5,0,0,0,3.5-3.5V77a9.9,9.9,0,0,0,2.4.3,8.5,8.5,0,0,0,.7-17Z"/><path class="a32eb326-9da3-4076-82cb-fdc66596d30a" d="M217,69.5H169.6s-7.9,20.6-.3,36.8c0,0,10.9,27.6,5.7,48.1,0,0-3.6,7.2,4.1,7.4h28.4c7.7-.2,4.1-7.4,4.1-7.4-5.3-20.5,5.7-48.1,5.7-48.1C224.8,90.1,217,69.5,217,69.5Z"/><path class="ac8b29a5-a387-401b-bc15-1ebf53541836" d="M214.6,76.9H171.9c-1.6,6.3-3.9,15.2.8,25.2h0v.2c.5,1.2,11.6,24.8,6,46.7a.8.8,0,0,0-.1.4c0,2,6.5,3.6,14.6,3.6s14.6-1.6,14.6-3.6c0-.1-.1-.2-.1-.3h0c-5.6-22,5.5-45.6,6-46.8v-.2h.1C218.5,92.1,216.3,83.2,214.6,76.9Z"/><path class="f33872bd-1811-464c-8391-737393722b1a" d="M170.3,93.3a27.4,27.4,0,0,0,2.4,8.8h0v.2c.5,1.2,11.6,24.8,6,46.7a.8.8,0,0,0-.1.4c0,2,6.5,3.6,14.6,3.6s14.6-1.6,14.6-3.6c0-.1-.1-.2-.1-.3h0c-5.6-22,5.5-45.6,6-46.8v-.2h.1a30.3,30.3,0,0,0,2.4-8.8Z"/><path class="aa29bdd1-cd93-4ba9-8535-90d4fddcd7c3" d="M167.5,56a3.7,3.7,0,1,1-3.6-3.6A3.6,3.6,0,0,1,167.5,56Z"/><path class="aa29bdd1-cd93-4ba9-8535-90d4fddcd7c3" d="M216.1,45.2a3.3,3.3,0,1,1-3.3-3.3A3.2,3.2,0,0,1,216.1,45.2Z"/><path class="aa29bdd1-cd93-4ba9-8535-90d4fddcd7c3" d="M223.3,52.7a2.3,2.3,0,1,1-2.3-2.3A2.3,2.3,0,0,1,223.3,52.7Z"/><path class="aa29bdd1-cd93-4ba9-8535-90d4fddcd7c3" d="M216.1,60.3v-.7a6.6,6.6,0,0,0-6.5-6.6,6.2,6.2,0,0,0-3.1.8,11,11,0,0,0-21.7-.3,9.2,9.2,0,0,0-14.7,7.4c0,.3.1.5.1.8h-1.4a7.2,7.2,0,1,0,2.1,14.1,6.5,6.5,0,0,0,12.2,2.2,9.2,9.2,0,0,0,5.8,2.1,8.9,8.9,0,0,0,5.5-1.9,6.6,6.6,0,0,0,11.6.6V97.8a3.6,3.6,0,0,0,7.1,0V77a8.8,8.8,0,0,0,2.4.3,8.5,8.5,0,0,0,.6-17Z"/></svg>